<svg width="24" height="24" viewBox="0 0 24 24" fill="none" xmlns="http://www.w3.org/2000/svg">
<g id="icon / 24px / favorit ">
<path id="Vector" d="M11.6398 19L10.8568 18.2933C9.51 17.0567 8.3966 15.9899 7.51654 15.093C6.63648 14.1961 5.93543 13.3943 5.41337 12.6876C4.89131 11.9809 4.52524 11.3411 4.31514 10.7681C4.10505 10.1951 4 9.61573 4 9.03001C4 7.88206 4.38518 6.92341 5.15553 6.15405C5.92588 5.38468 6.87767 5 8.01091 5C8.7367 5 9.40837 5.1719 10.0259 5.51569C10.6435 5.85948 11.1814 6.35607 11.6398 7.00546C12.1746 6.31787 12.7412 5.81173 13.3397 5.48704C13.9382 5.16235 14.5812 5 15.2688 5C16.402 5 17.3538 5.38468 18.1241 6.15405C18.8945 6.92341 19.2797 7.88206 19.2797 9.03001C19.2797 9.61573 19.1746 10.1951 18.9645 10.7681C18.7544 11.3411 18.3884 11.9809 17.8663 12.6876C17.3442 13.3943 16.6432 14.1961 15.7631 15.093C14.8831 15.9899 13.7697 17.0567 12.4229 18.2933L11.6398 19ZM11.6398 17.4911C12.9289 16.307 13.9897 15.2916 14.8222 14.4448C15.6547 13.598 16.3161 12.8563 16.8063 12.2196C17.2965 11.583 17.6403 11.0155 17.8377 10.5172C18.035 10.0189 18.1337 9.52408 18.1337 9.03278C18.1337 8.19055 17.8663 7.49886 17.3315 6.95771C16.7967 6.41655 16.1106 6.14598 15.2731 6.14598C14.617 6.14598 14.0098 6.34652 13.4514 6.74761C12.8931 7.1487 12.442 7.71214 12.0982 8.43793H11.1623C10.8313 7.72487 10.3866 7.16462 9.82824 6.75716C9.26988 6.3497 8.66267 6.14598 8.00662 6.14598C7.1691 6.14598 6.48295 6.41655 5.94816 6.95771C5.41337 7.49886 5.14598 8.19164 5.14598 9.03605C5.14598 9.52861 5.24466 10.0264 5.44202 10.5293C5.63938 11.0323 5.98317 11.6053 6.4734 12.2483C6.96362 12.8913 7.62892 13.633 8.4693 14.4734C9.30969 15.3138 10.3665 16.3197 11.6398 17.4911Z" fill="#9D9DB5"/>
</g>
</svg>
