<svg width="36" height="36" viewBox="0 0 36 36" fill="none" xmlns="http://www.w3.org/2000/svg">
<g id="icon" clip-path="url(#clip0_1_284)">
<rect id="Rectangle 12112" x="0.5" y="0.5" width="35" height="35" rx="17.5" fill="#E0FFFF" stroke="#9D9DB5"/>
<path id="Vector 852" d="M8.5 27.5L7 31C8.5 33.5 14 35.5 19 35.5C23 35.5 27.6667 32.8333 29.5 31.5L29 30L28 28L25.5 26.5L23.5 25.5L22.5 22.5L18.5 24.5L16.5 24L13.5 22.5L12.5 25.5L11.5 26L8.5 27.5Z" fill="white"/>
<path id="Vector 853" d="M12 6.50002C9.2 7.70002 6.5 10.6667 5.5 12V12.4999L4.5 13.9999V15.9999V17.4999L6 18.9999L9 19.9999L11.5 20.9999L16.5 23.9999L18.5 24.4999L20.5 23.4999L24.5 20.9999L29 19.4999L31.5 17.9999V13.9999L29 9.99994L24.5 6.49994L19 4.99994L15.5 5.50002C15.5 5.33335 14.8 5.30002 12 6.50002Z" fill="white"/>
<path id="Vector" d="M6.90594 31.2992H6.82444C6.57938 31.2177 6.49788 30.9727 6.57938 30.8091C7.72318 26.9691 8.54038 26.6424 12.0534 25.4987L12.217 25.4173C12.2985 25.2537 12.6256 24.3549 12.7892 23.7834C12.8707 23.4568 13.0342 23.0482 13.1157 22.721C13.1972 22.476 13.4423 22.3945 13.6059 22.476C13.8509 22.5575 13.9324 22.8025 13.8509 22.9661C13.7694 23.2927 13.6059 23.6198 13.5244 23.9464C13.1152 25.3347 12.8701 26.0705 12.4621 26.1519L12.2985 26.2334C8.86701 27.3772 8.37694 27.5407 7.31467 30.9721C7.2326 31.2172 7.06961 31.2992 6.90604 31.2992L6.90594 31.2992Z" fill="#9D9DB5"/>
<path id="Vector_2" d="M29.1297 31.2992C28.9662 31.2992 28.8032 31.2177 28.7211 30.9726C27.7409 27.5412 27.1686 27.3776 23.7373 26.2339L23.5737 26.1519C23.0836 25.9883 22.92 25.3346 22.5114 23.9458C22.4299 23.6192 22.2663 23.2921 22.1848 22.9655C22.1034 22.7204 22.1849 22.5569 22.4299 22.4754C22.675 22.3939 22.8385 22.4754 22.92 22.7204C23.0015 23.047 23.1651 23.3741 23.2466 23.7827C23.4102 24.3549 23.7367 25.3352 23.9003 25.4988H24.0639C27.5768 26.6426 28.4755 26.8876 29.5379 30.8091C29.6194 31.0542 29.4564 31.2178 29.2928 31.2993H29.1298L29.1297 31.2992Z" fill="#9D9DB5"/>
<path id="Vector_3" d="M18.0175 24.8447C16.7101 24.8447 15.4027 24.0275 14.014 23.0473C12.2979 21.9035 10.174 20.5147 7.31409 19.9425C5.02643 19.0437 3.06543 17.8999 4.29126 13.9783C4.53689 13.0796 7.72318 4.90941 18.0175 4.66431C28.3118 4.90937 31.4981 13.0796 31.8253 13.9783C33.0506 17.8999 31.0901 19.0437 28.884 19.9425C25.9428 20.5147 23.8187 21.9035 22.1028 23.0473C20.5503 24.0281 19.325 24.8447 18.0177 24.8447H18.0175ZM18.0175 5.48133C8.29481 5.72639 5.35353 13.4064 5.02701 14.3052C4.04676 17.573 5.43564 18.3903 7.47822 19.2076C10.4195 19.7798 12.6256 21.2501 14.4232 22.394C15.8121 23.2927 16.9558 24.0279 17.9361 24.0279H18.0176C18.9978 24.0279 20.1417 23.2927 21.5305 22.394C23.3279 21.2502 25.534 19.7792 28.5569 19.2076C30.5994 18.3903 31.9884 17.5737 30.9259 14.3052C30.6815 13.4064 27.7402 5.72629 18.0174 5.48133H18.0175Z" fill="#9D9DB5"/>
<path id="Vector_4" d="M21.6957 19.2073C21.4507 19.2073 21.2871 19.0437 21.2871 18.7986V17.9814C21.2871 17.7363 21.4507 17.5728 21.6957 17.5728C21.9408 17.5733 22.1044 17.7369 22.1044 17.9819V18.7992C22.1044 19.0443 21.9408 19.2073 21.6957 19.2073Z" fill="#9D9DB5"/>
<path id="Vector_5" d="M14.3422 19.2073C14.0972 19.2073 13.9336 19.0437 13.9336 18.7986V17.9814C13.9336 17.7363 14.0972 17.5728 14.3422 17.5728C14.5873 17.5733 14.7508 17.7369 14.7508 17.9819V18.7992C14.7508 19.0443 14.5873 19.2073 14.3422 19.2073Z" fill="#9D9DB5"/>
<rect id="Rectangle 12113" x="0.5" y="0.5" width="35" height="35" rx="17.5" stroke="#9D9DB5"/>
</g>
<defs>
<clipPath id="clip0_1_284">
<rect width="36" height="36" fill="white"/>
</clipPath>
</defs>
</svg>
